<svg width="100" height="100" viewBox="0 0 100 100" fill="none" xmlns="http://www.w3.org/2000/svg">
<rect x="5.52197" width="62.8711" height="62.8711" transform="matrix(0.707106 -0.707108 0.707106 0.707108 1.61735 53.8833)" stroke="white" stroke-width="7.80926"/>
<g filter="url(#filter0_d_28_175)">
<path d="M50.2125 65.7423V27.963H58.2001V59.1568H74.3965V65.7423H50.2125Z" fill="white"/>
</g>
<g filter="url(#filter1_dd_28_175)">
<path d="M46.6274 43.698C46.4798 42.2099 45.8465 41.0539 44.7274 40.23C43.6082 39.406 42.0894 38.994 40.171 38.994C38.8674 38.994 37.7667 39.1785 36.869 39.5474C35.9712 39.9041 35.2825 40.4021 34.8029 41.0416C34.3356 41.6811 34.1019 42.4067 34.1019 43.2184C34.0773 43.8947 34.2188 44.485 34.5262 44.9893C34.846 45.4935 35.2825 45.9301 35.8359 46.299C36.3893 46.6556 37.0288 46.9692 37.7544 47.2398C38.48 47.498 39.2548 47.7194 40.0787 47.9039L43.473 48.7155C45.1209 49.0845 46.6335 49.5764 48.0109 50.1913C49.3883 50.8062 50.5812 51.5625 51.5896 52.4603C52.598 53.358 53.379 54.4156 53.9324 55.6331C54.4981 56.8506 54.7871 58.2465 54.7994 59.8206C54.7871 62.1326 54.1968 64.1372 53.0285 65.8343C51.8725 67.5191 50.1999 68.8288 48.0109 69.7635C45.8342 70.6858 43.2086 71.147 40.1341 71.147C37.0842 71.147 34.4278 70.6797 32.165 69.745C29.9145 68.8104 28.1559 67.4269 26.8892 65.5945C25.6348 63.7498 24.9768 61.4685 24.9154 58.7507H32.6446C32.7307 60.0174 33.0935 61.075 33.733 61.9235C34.3848 62.7598 35.2518 63.3931 36.334 63.8236C37.4285 64.2417 38.6645 64.4508 40.0418 64.4508C41.3946 64.4508 42.5691 64.254 43.5652 63.8605C44.5736 63.4669 45.3546 62.9197 45.908 62.2187C46.4614 61.5177 46.7381 60.7122 46.7381 59.8021C46.7381 58.9536 46.486 58.2403 45.9817 57.6623C45.4898 57.0843 44.7642 56.5924 43.805 56.1865C42.8581 55.7807 41.6959 55.4118 40.3185 55.0797L36.2049 54.0467C33.0197 53.2719 30.5048 52.0606 28.6601 50.4127C26.8154 48.7647 25.8992 46.545 25.9115 43.7533C25.8992 41.4659 26.5079 39.4675 27.7377 37.7581C28.9798 36.0487 30.6831 34.7143 32.8475 33.7551C35.012 32.7958 37.4716 32.3162 40.2263 32.3162C43.0302 32.3162 45.4775 32.7958 47.5682 33.7551C49.6711 34.7143 51.3068 36.0487 52.4751 37.7581C53.6434 39.4675 54.246 41.4475 54.2829 43.698H46.6274Z" fill="white"/>
</g>
<defs>
<filter id="filter0_d_28_175" x="46.966" y="27.963" width="30.6772" height="44.2726" filterUnits="userSpaceOnUse" color-interpolation-filters="sRGB">
<feFlood flood-opacity="0" result="BackgroundImageFix"/>
<feColorMatrix in="SourceAlpha" type="matrix" values="0 0 0 0 0 0 0 0 0 0 0 0 0 0 0 0 0 0 127 0" result="hardAlpha"/>
<feOffset dy="3.24666"/>
<feGaussianBlur stdDeviation="1.62333"/>
<feComposite in2="hardAlpha" operator="out"/>
<feColorMatrix type="matrix" values="0 0 0 0 0 0 0 0 0 0 0 0 0 0 0 0 0 0 0.25 0"/>
<feBlend mode="normal" in2="BackgroundImageFix" result="effect1_dropShadow_28_175"/>
<feBlend mode="normal" in="SourceGraphic" in2="effect1_dropShadow_28_175" result="shape"/>
</filter>
<filter id="filter1_dd_28_175" x="18.6679" y="29.0696" width="42.5018" height="54.5723" filterUnits="userSpaceOnUse" color-interpolation-filters="sRGB">
<feFlood flood-opacity="0" result="BackgroundImageFix"/>
<feColorMatrix in="SourceAlpha" type="matrix" values="0 0 0 0 0 0 0 0 0 0 0 0 0 0 0 0 0 0 127 0" result="hardAlpha"/>
<feOffset dx="3.1237"/>
<feGaussianBlur stdDeviation="1.62333"/>
<feComposite in2="hardAlpha" operator="out"/>
<feColorMatrix type="matrix" values="0 0 0 0 0 0 0 0 0 0 0 0 0 0 0 0 0 0 0.25 0"/>
<feBlend mode="normal" in2="BackgroundImageFix" result="effect1_dropShadow_28_175"/>
<feColorMatrix in="SourceAlpha" type="matrix" values="0 0 0 0 0 0 0 0 0 0 0 0 0 0 0 0 0 0 127 0" result="hardAlpha"/>
<feOffset dy="6.24741"/>
<feGaussianBlur stdDeviation="3.1237"/>
<feComposite in2="hardAlpha" operator="out"/>
<feColorMatrix type="matrix" values="0 0 0 0 0 0 0 0 0 0 0 0 0 0 0 0 0 0 0.25 0"/>
<feBlend mode="normal" in2="effect1_dropShadow_28_175" result="effect2_dropShadow_28_175"/>
<feBlend mode="normal" in="SourceGraphic" in2="effect2_dropShadow_28_175" result="shape"/>
</filter>
</defs>
</svg>
